<svg xmlns="http://www.w3.org/2000/svg" xmlns:xlink="http://www.w3.org/1999/xlink" width="600" height="599" viewBox="0 0 600 599"><defs><filter id="Ellipse_9" width="579" height="579" x="21" y="20" filterUnits="userSpaceOnUse"><feOffset dx="10" dy="10" input="SourceAlpha"/><feGaussianBlur result="blur" stdDeviation="5"/><feFlood flood-opacity=".424"/><feComposite in2="blur" operator="in"/><feComposite in="SourceGraphic"/></filter><filter id="Ellipse_10" width="579" height="579" x="0" y="0" filterUnits="userSpaceOnUse"><feOffset dx="-10" dy="-10" input="SourceAlpha"/><feGaussianBlur result="blur-2" stdDeviation="5"/><feFlood flood-color="#fff" flood-opacity=".627"/><feComposite in2="blur-2" operator="in"/><feComposite in="SourceGraphic"/></filter><filter id="Path_73" width="380.663" height="403.022" x="112" y="61" filterUnits="userSpaceOnUse"><feOffset dx="2" dy="2" input="SourceAlpha"/><feGaussianBlur result="blur-3" stdDeviation="3"/><feFlood flood-opacity=".329"/><feComposite in2="blur-3" operator="in"/><feComposite in="SourceGraphic"/></filter><filter id="Path_74" width="398.663" height="421.022" x="99" y="48" filterUnits="userSpaceOnUse"><feOffset dx="-2" dy="-2" input="SourceAlpha"/><feGaussianBlur result="blur-4" stdDeviation="6"/><feFlood flood-color="#fff" flood-opacity=".329"/><feComposite in2="blur-4" operator="in"/><feComposite in="SourceGraphic"/></filter></defs><g id="Group_53" data-name="Group 53" transform="translate(-100 -128)"><g filter="url(#Ellipse_9)" transform="matrix(1, 0, 0, 1, 100, 128)"><circle id="Ellipse_9-2" cx="274.5" cy="274.5" r="274.5" fill="#404040" data-name="Ellipse 9" transform="translate(26 25)"/></g><g filter="url(#Ellipse_10)" transform="matrix(1, 0, 0, 1, 100, 128)"><circle id="Ellipse_10-2" cx="274.5" cy="274.5" r="274.5" fill="#e5e5e5" data-name="Ellipse 10" transform="translate(25 25)"/></g><g id="Logo"><g filter="url(#Path_73)" transform="translate(-766.7 -756.1) matrix(1, 0, 0, 1, 866.7, 884.1)"><path id="Path_73-2" fill="#00e3c9" d="M1348.363,1337.122H1192.385v-66.577h62.584l-87.937-229.975-87.938,229.975h62.618v66.577H985.7L1130.1,952.1H1204Z" data-name="Path 73" transform="translate(-866.7 -884.1)"/></g><g filter="url(#Path_74)" transform="translate(-766.7 -756.1) matrix(1, 0, 0, 1, 866.7, 884.1)"><path id="Path_74-2" fill="#00e3c9" d="M1348.363,1337.122H1192.385v-66.577h62.584l-87.937-229.975-87.938,229.975h62.618v66.577H985.7L1130.1,952.1H1204Z" data-name="Path 74" transform="translate(-866.7 -884.1)"/></g></g></g></svg>