<svg xmlns="http://www.w3.org/2000/svg" width="202.786" height="46.668" viewBox="0 0 202.786 46.668"><g id="Group_2" data-name="Group 2" transform="translate(0 0)"><path id="Path_2" fill="#00e3c9" d="M428.39,1223.27H436.9l17.352,46.273h-8.166Z" data-name="Path 2" transform="translate(-410.662 -1223.27)"/><path id="Path_3" fill="#00e3c9" d="M220.679,1223.27h-8.506l-17.353,46.273h8.166Z" data-name="Path 3" transform="translate(-194.82 -1223.27)"/><rect id="Rectangle_2" width="13.554" height="8.001" fill="#00e3c9" data-name="Rectangle 2" transform="translate(5.194 38.272)"/><rect id="Rectangle_3" width="13.554" height="8.001" fill="#00e3c9" data-name="Rectangle 3" transform="translate(24.838 38.272)"/><g id="Group_1" data-name="Group 1" transform="translate(46.372 11.267)"><path id="Path_4" fill="#00e3c9" d="M828.228,1411.531l-7.243-10.63c-.672.049-1.391.1-2.111.1h-8.3v10.531h-4.8v-34.61h13.094c8.73,0,14.006,4.549,14.006,12.064,0,5.339-2.686,9.2-7.387,10.927l7.962,11.619h-5.227Zm-.143-22.546c0-4.944-3.214-7.762-9.353-7.762h-8.155V1396.8h8.154C824.871,1396.8,828.085,1393.929,828.085,1388.985Z" data-name="Path 4" transform="translate(-805.78 -1376.526)"/><path id="Path_5" fill="#00e3c9" d="M1287.649,1411.531l-7.243-10.63c-.672.049-1.391.1-2.111.1H1270v10.531h-4.8v-34.61h13.094c8.73,0,14.006,4.549,14.006,12.064,0,5.339-2.686,9.2-7.387,10.927l7.962,11.619h-5.226Zm-.144-22.546c0-4.944-3.214-7.762-9.353-7.762H1270V1396.8h8.154C1284.291,1396.8,1287.5,1393.929,1287.5,1388.985Z" data-name="Path 5" transform="translate(-1230.33 -1376.526)"/><path id="Path_6" fill="#00e3c9" d="M1688.62,1389.421c0-10.136,7.579-17.7,17.891-17.7,10.217,0,17.8,7.516,17.8,17.7s-7.579,17.7-17.8,17.7C1696.2,1407.121,1688.62,1399.557,1688.62,1389.421Zm30.89,0c0-7.664-5.564-13.3-13-13.3-7.531,0-13.095,5.636-13.095,13.3s5.564,13.3,13.095,13.3C1713.946,1402.721,1719.51,1397.084,1719.51,1389.421Z" data-name="Path 6" transform="translate(-1621.613 -1371.72)"/><path id="Path_7" fill="#00e3c9" d="M2246.389,1376.93l-11.224,34.61h-5.037l-9.161-27.639-9.161,27.639h-5.132l-11.224-34.61h4.94l9.065,28.133,9.449-28.133h4.413l9.258,28.282,9.257-28.282Z" data-name="Path 7" transform="translate(-2089.975 -1376.535)"/></g></g></svg>