<svg xmlns="http://www.w3.org/2000/svg" xmlns:xlink="http://www.w3.org/1999/xlink" width="600" height="599" viewBox="0 0 600 599">
  <defs>
    <filter id="Ellipse_9" x="21" y="20" width="579" height="579" filterUnits="userSpaceOnUse">
      <feOffset dx="10" dy="10" input="SourceAlpha"/>
      <feGaussianBlur stdDeviation="5" result="blur"/>
      <feFlood flood-opacity="0.424"/>
      <feComposite operator="in" in2="blur"/>
      <feComposite in="SourceGraphic"/>
    </filter>
    <filter id="Ellipse_10" x="0" y="0" width="579" height="579" filterUnits="userSpaceOnUse">
      <feOffset dx="-10" dy="-10" input="SourceAlpha"/>
      <feGaussianBlur stdDeviation="5" result="blur-2"/>
      <feFlood flood-color="#fff" flood-opacity="0.627"/>
      <feComposite operator="in" in2="blur-2"/>
      <feComposite in="SourceGraphic"/>
    </filter>
    <filter id="Path_73" x="112" y="61" width="380.663" height="403.022" filterUnits="userSpaceOnUse">
      <feOffset dx="2" dy="2" input="SourceAlpha"/>
      <feGaussianBlur stdDeviation="3" result="blur-3"/>
      <feFlood flood-opacity="0.329"/>
      <feComposite operator="in" in2="blur-3"/>
      <feComposite in="SourceGraphic"/>
    </filter>
    <filter id="Path_74" x="99" y="48" width="398.663" height="421.022" filterUnits="userSpaceOnUse">
      <feOffset dx="-2" dy="-2" input="SourceAlpha"/>
      <feGaussianBlur stdDeviation="6" result="blur-4"/>
      <feFlood flood-color="#fff" flood-opacity="0.329"/>
      <feComposite operator="in" in2="blur-4"/>
      <feComposite in="SourceGraphic"/>
    </filter>
  </defs>
  <g id="Group_34" data-name="Group 34" transform="translate(-100 -128)">
    <g transform="matrix(1, 0, 0, 1, 100, 128)" filter="url(#Ellipse_9)">
      <circle id="Ellipse_9-2" data-name="Ellipse 9" cx="274.5" cy="274.5" r="274.5" transform="translate(26 25)" fill="#404040"/>
    </g>
    <g transform="matrix(1, 0, 0, 1, 100, 128)" filter="url(#Ellipse_10)">
      <circle id="Ellipse_10-2" data-name="Ellipse 10" cx="274.5" cy="274.5" r="274.5" transform="translate(25 25)" fill="#404040"/>
    </g>
    <g transform="matrix(1, 0, 0, 1, 100, 128)" filter="url(#Path_73)">
      <path id="Path_73-2" data-name="Path 73" d="M1348.363,1337.122H1192.385v-66.577h62.584l-87.937-229.975-87.938,229.975h62.618v66.577H985.7L1130.1,952.1H1204Z" transform="translate(-866.7 -884.1)" fill="#00e3c9"/>
    </g>
    <g transform="matrix(1, 0, 0, 1, 100, 128)" filter="url(#Path_74)">
      <path id="Path_74-2" data-name="Path 74" d="M1348.363,1337.122H1192.385v-66.577h62.584l-87.937-229.975-87.938,229.975h62.618v66.577H985.7L1130.1,952.1H1204Z" transform="translate(-866.7 -884.1)" fill="#00e3c9"/>
    </g>
  </g>
</svg>
