<svg xmlns="http://www.w3.org/2000/svg" width="400" height="400" viewBox="0 0 639.516 634.929"><g id="Group_78" data-name="Group 78" transform="translate(-765.785 -155.466)"><g id="_2" data-name="2" transform="translate(931.832 150.198) rotate(45)"><path id="Path_111" fill="#13763c" stroke="#b6da9e" stroke-miterlimit="10" stroke-width="3" d="M140.271,58,3.62,194.651H533.039L662.083,65.607l4.865-4.865Z" data-name="Path 111" transform="translate(0 38.674)"/><path id="Path_112" fill="#13763c" stroke="#b6da9e" stroke-miterlimit="10" stroke-width="3" d="M140.271,53.98,3.62,190.631H533.039L662.083,61.587l4.865-4.865Z" data-name="Path 112" transform="translate(0 35.973)"/><path id="Path_113" fill="#13763c" stroke="#b6da9e" stroke-miterlimit="10" stroke-width="3" d="M140.271,49.97,3.62,186.621H533.039L662.083,57.577l4.865-4.865Z" data-name="Path 113" transform="translate(0 33.279)"/><path id="Path_114" fill="#13763c" stroke="#b6da9e" stroke-miterlimit="10" stroke-width="3" d="M140.271,45.95,3.62,182.6H533.039L662.083,53.557l4.865-4.865Z" data-name="Path 114" transform="translate(0 30.579)"/><path id="Path_115" fill="#13763c" stroke="#b6da9e" stroke-miterlimit="10" stroke-width="3" d="M140.271,41.81,3.62,178.444H533.039L662.083,49.417l4.865-4.865Z" data-name="Path 115" transform="translate(0 27.798)"/><path id="Path_116" fill="#13763c" stroke="#b6da9e" stroke-miterlimit="10" stroke-width="3" d="M140.271,37.79,3.62,174.424H533.039L662.083,45.4l4.865-4.865Z" data-name="Path 116" transform="translate(0 25.097)"/><path id="Path_117" fill="#13763c" stroke="#b6da9e" stroke-miterlimit="10" stroke-width="3" d="M140.271,33.77,3.62,170.421H533.039L662.083,41.393l4.865-4.882Z" data-name="Path 117" transform="translate(0 22.396)"/><path id="Path_118" fill="#13763c" stroke="#b6da9e" stroke-miterlimit="10" stroke-width="3" d="M140.271,29.75,3.62,166.4H533.039L662.083,37.357l4.865-4.865Z" data-name="Path 118" transform="translate(0 19.696)"/><path id="Path_119" fill="#13763c" stroke="#b6da9e" stroke-miterlimit="10" stroke-width="3" d="M140.271,29.75,3.62,166.4H533.039L662.083,37.357l4.865-4.865Z" data-name="Path 119" transform="translate(0 19.696)"/><path id="Path_120" fill="#13763c" stroke="#b6da9e" stroke-miterlimit="10" stroke-width="3" d="M140.271,25.73,3.62,162.381H533.039L662.083,33.337l4.865-4.865Z" data-name="Path 120" transform="translate(0 16.995)"/><path id="Path_121" fill="#13763c" stroke="#b6da9e" stroke-miterlimit="10" stroke-width="3" d="M140.271,21.72,3.62,158.371H533.039L662.083,29.327l4.865-4.865Z" data-name="Path 121" transform="translate(0 14.302)"/><path id="Path_122" fill="#13763c" stroke="#b6da9e" stroke-miterlimit="10" stroke-width="3" d="M140.271,17.7,3.62,154.351H533.039L662.083,25.307l4.865-4.865Z" data-name="Path 122" transform="translate(0 11.601)"/><path id="Path_123" fill="#13763c" stroke="#b6da9e" stroke-miterlimit="10" stroke-width="3" d="M140.271,13.56,3.62,150.194H533.039L662.083,21.167l4.865-4.865Z" data-name="Path 123" transform="translate(0 8.82)"/><path id="Path_124" fill="#13763c" stroke="#b6da9e" stroke-miterlimit="10" stroke-width="3" d="M140.271,9.54,3.62,146.174H533.039L662.083,17.147l4.865-4.865Z" data-name="Path 124" transform="translate(0 6.119)"/><path id="Path_125" fill="#13763c" stroke="#b6da9e" stroke-miterlimit="10" stroke-width="3" d="M140.271,5.53,3.62,142.164H533.039L662.083,13.137l4.865-4.865Z" data-name="Path 125" transform="translate(0 3.425)"/><path id="Path_126" fill="#13763c" stroke="#b6da9e" stroke-miterlimit="10" stroke-width="3" d="M1272.992,1258.492c-16.935-4.079-17.5-15.982-3.344-28.788h49.585l.853-.853-480.4-2.491-1.12,1.187c-20.2,20.981-53.5,37.348-74.528,36.545a26.755,26.755,0,0,1-7.389-1.2L687,1332.618a63.287,63.287,0,0,1,16.918,1.354c16.952,4.1,17.5,15.982,3.344,28.788h478.914l102.881-102.881a62.089,62.089,0,0,1-16.066-1.388Z" data-name="Path 126" transform="translate(-653.138 -1223.891)"/><path id="Path_127" fill="#b6da9f" stroke="#b6da9e" stroke-miterlimit="10" stroke-width="3" d="M715.96,1291.312a63.3,63.3,0,0,0-16.918-1.354L668.95,1320.05h50.421C733.464,1307.294,732.912,1295.408,715.96,1291.312Z" data-name="Path 127" transform="translate(-665.263 -1181.231)"/><path id="Path_128" fill="#b6da9f" stroke="#b6da9e" stroke-miterlimit="10" stroke-width="3" d="M1073.293,1232.355,1047.13,1258.5H1048l30.092-30.092h-.853Z" data-name="Path 128" transform="translate(-411.21 -1222.514)"/><path id="Path_129" fill="#b6da9f" stroke="#b6da9e" stroke-miterlimit="10" stroke-width="3" d="M1089.137,1228.36h-49.585c-14.16,12.806-13.592,24.709,3.344,28.788a62.079,62.079,0,0,0,16.066,1.387l26.164-26.147Z" data-name="Path 129" transform="translate(-423.042 -1222.547)"/><path id="Path_130" fill="#b6da9f" stroke="#b6da9e" stroke-miterlimit="10" stroke-width="3" d="M810.584,1227.647l1.12-1.187-46.275-.251-36.779,36.779a26.755,26.755,0,0,0,7.389,1.2C757.02,1265,790.389,1248.628,810.584,1227.647Z" data-name="Path 130" transform="translate(-625.158 -1223.992)"/><path id="Path_131" fill="#b6da9f" stroke="#b6da9e" stroke-miterlimit="10" stroke-width="3" d="M958.23,1321.516l-1.12,1.187,46.275.251,36.779-36.779a26.755,26.755,0,0,0-7.389-1.2C1011.777,1284.185,978.408,1300.535,958.23,1321.516Z" data-name="Path 131" transform="translate(-471.683 -1184.535)"/><path id="Path_132" fill="#fdf8c9" stroke="#797c4d" stroke-miterlimit="10" stroke-width="3" d="M143.91,134.289,273.607,1.5h64.564L210.514,132.183V235.867h-66.6Z" data-name="Path 132" transform="translate(94.244 0.718)"/><ellipse id="Ellipse_24" cx="64.43" cy="42.697" fill="#b6da9f" stroke="#b6da9e" stroke-miterlimit="10" stroke-width="3" data-name="Ellipse 24" rx="64.43" ry="42.697" transform="translate(126.429 65.915) rotate(-30)"/><ellipse id="Ellipse_25" cx="64.43" cy="42.697" fill="#b6da9f" stroke="#b6da9e" stroke-miterlimit="10" stroke-width="3" data-name="Ellipse 25" rx="64.43" ry="42.697" transform="translate(383.978 64.861) rotate(-30)"/></g></g></svg>
