<?xml version="1.0" encoding="utf-8"?>
<!-- Generator: Adobe Illustrator 24.0.1, SVG Export Plug-In . SVG Version: 6.00 Build 0)  -->
<svg version="1.1" id="Layer_1" xmlns="http://www.w3.org/2000/svg" xmlns:xlink="http://www.w3.org/1999/xlink" x="0px" y="0px"
	 viewBox="0 0 3061.42 3061.42" style="enable-background:new 0 0 3061.42 3061.42;" xml:space="preserve">
<style type="text/css">
	.st0{fill:none;}
	.st1{fill:#00E3C9;}
</style>
<polygon class="st0" points="1136.21,249.4 1140.09,249.4 1140.09,249.4 1136.21,249.4 "/>
<g>
	<polygon class="st1" points="428.39,1223.27 540.46,1223.27 769.08,1832.93 661.49,1832.93 	"/>
	<polygon class="st1" points="535.52,1223.27 423.45,1223.27 194.82,1832.93 302.41,1832.93 	"/>
	<rect x="263.25" y="1727.52" class="st1" width="178.58" height="105.41"/>
	<rect x="522.07" y="1727.52" class="st1" width="178.58" height="105.41"/>
	<g>
		<path class="st1" d="M1101.54,1832.93l-95.43-140.06c-8.85,0.65-18.33,1.3-27.81,1.3H868.98v138.75h-63.2v-456h172.52
			c115.02,0,184.53,59.93,184.53,158.95c0,70.35-35.39,121.17-97.32,143.97l104.9,153.08H1101.54z M1099.65,1535.88
			c0-65.14-42.34-102.27-123.23-102.27H868.98v205.2h107.43C1057.31,1638.81,1099.65,1601.02,1099.65,1535.88z"/>
		<path class="st1" d="M1560.97,1832.93l-95.43-140.06c-8.85,0.65-18.33,1.3-27.81,1.3h-109.33v138.75h-63.2v-456h172.52
			c115.02,0,184.53,59.93,184.53,158.95c0,70.35-35.39,121.17-97.32,143.97l104.9,153.08H1560.97z M1559.07,1535.88
			c0-65.14-42.34-102.27-123.23-102.27h-107.43v205.2h107.43C1516.73,1638.81,1559.07,1601.02,1559.07,1535.88z"/>
		<path class="st1" d="M1688.62,1604.93c0-133.54,99.85-233.21,235.72-233.21c134.61,0,234.46,99.02,234.46,233.21
			s-99.85,233.21-234.46,233.21C1788.47,1838.14,1688.62,1738.48,1688.62,1604.93z M2095.6,1604.93
			c0-100.97-73.31-175.23-171.26-175.23c-99.22,0-172.53,74.26-172.53,175.23c0,100.97,73.31,175.23,172.53,175.23
			C2022.29,1780.17,2095.6,1705.9,2095.6,1604.93z"/>
		<path class="st1" d="M2866.59,1376.93l-147.88,456h-66.36l-120.7-364.15l-120.7,364.15h-67.62l-147.88-456h65.09l119.44,370.66
			l124.5-370.66h58.14l121.97,372.62l121.97-372.62H2866.59z"/>
	</g>
</g>
</svg>
